<svg width="32" height="32" viewBox="0 0 32 32" fill="none" xmlns="http://www.w3.org/2000/svg">
<g clip-path="url(#clip0_1600_21212)">
<path d="M23 7H25C25.5304 7 26.0391 7.21071 26.4142 7.58579C26.7893 7.96086 27 8.46957 27 9V19C27 19.5304 26.7893 20.0391 26.4142 20.4142C26.0391 20.7893 25.5304 21 25 21H22" stroke="#1E2051" stroke-width="2" stroke-linecap="round" stroke-linejoin="round"/>
<path d="M10 21H7C6.46957 21 5.96086 20.7893 5.58579 20.4142C5.21071 20.0391 5 19.5304 5 19V9C5 8.46957 5.21071 7.96086 5.58579 7.58579C5.96086 7.21071 6.46957 7 7 7H9" stroke="#1E2051" stroke-width="2" stroke-linecap="round" stroke-linejoin="round"/>
<path d="M24.7612 21C25.504 21 26.232 21.2068 26.8638 21.5973C27.4957 21.9877 28.0063 22.5464 28.3386 23.2107L30.7866 28.1053C30.9391 28.4103 31.0111 28.7492 30.9958 29.0898C30.9805 29.4305 30.8783 29.7616 30.699 30.0516C30.5197 30.3416 30.2693 30.581 29.9714 30.747C29.6736 30.913 29.3382 31.0001 28.9972 31H3.00255C2.66157 31.0001 2.32621 30.913 2.02836 30.747C1.7305 30.581 1.48003 30.3416 1.30074 30.0516C1.12145 29.7616 1.01929 29.4305 1.00397 29.0898C0.988654 28.7492 1.06068 28.4103 1.21322 28.1053L3.66122 23.2107C3.99347 22.5464 4.50411 21.9877 5.13593 21.5973C5.76776 21.2068 6.49582 21 7.23855 21" stroke="#1E2051" stroke-width="2" stroke-linecap="round" stroke-linejoin="round"/>
<path d="M19 5.27467C19 2.91333 16 1 16 1C16 1 13 2.91333 13 5.27467V15.2493H19V5.27467Z" stroke="currentColor" stroke-width="2" stroke-linecap="round" stroke-linejoin="round"/>
<path d="M13 15.249H9.3493C9.23862 15.251 9.12874 15.23 9.02661 15.1873C8.92448 15.1446 8.83232 15.0812 8.75596 15.001C8.68749 14.9281 8.63919 14.8386 8.61581 14.7414C8.59243 14.6441 8.59478 14.5424 8.62263 14.4464C8.97935 13.4567 9.56006 12.5628 10.3194 11.8347C11.0788 11.1066 11.9962 10.5639 13 10.249" stroke="currentColor" stroke-width="2" stroke-linecap="round" stroke-linejoin="round"/>
<path d="M19 15.249H22.6507C22.7611 15.2508 22.8707 15.2297 22.9726 15.187C23.0745 15.1443 23.1665 15.081 23.2427 15.001C23.3114 14.9283 23.3598 14.8388 23.3832 14.7415C23.4066 14.6441 23.4041 14.5424 23.376 14.4464C23.0184 13.4574 22.4376 12.5642 21.6786 11.8362C20.9197 11.1082 20.003 10.5651 19 10.249" stroke="currentColor" stroke-width="2" stroke-linecap="round" stroke-linejoin="round"/>
<path d="M14 19V22" stroke="currentColor" stroke-width="2" stroke-linecap="round" stroke-linejoin="round"/>
<path d="M18 19V25" stroke="currentColor" stroke-width="2" stroke-linecap="round" stroke-linejoin="round"/>
</g>
<defs>
<clipPath id="clip0_1600_21212">
<rect width="32" height="32" fill="white"/>
</clipPath>
</defs>
</svg>
