<svg width="32" height="32" viewBox="0 0 32 32" fill="none" xmlns="http://www.w3.org/2000/svg">
<g clip-path="url(#clip0_1600_21199)">
<path d="M7.83995 29.4002C5.79995 31.4402 1.69328 30.5469 1.69328 30.5469C1.69328 30.5469 0.799942 26.4402 2.83994 24.4002C4.87994 22.3602 6.73328 23.9202 7.53328 24.7069C8.33328 25.4936 9.89328 27.3469 7.83995 29.4002Z" stroke="currentColor" stroke-width="2" stroke-linecap="round" stroke-linejoin="round"/>
<path d="M26.3865 6.17342L28.1198 4.42676" stroke="#1E2051" stroke-width="2" stroke-linecap="round" stroke-linejoin="round"/>
<path d="M13.7733 23.1068L14 26.9201C14.0288 27.0422 14.0878 27.155 14.1717 27.2482C14.2556 27.3414 14.3616 27.412 14.48 27.4534C14.5906 27.4934 14.7101 27.5021 14.8254 27.4786C14.9406 27.455 15.0472 27.4002 15.1333 27.3201L19.56 23.6268C19.8946 23.2798 20.1226 22.8442 20.2172 22.3716C20.3117 21.8989 20.2688 21.409 20.0933 20.9601L19.52 19.5201L24.08 16.7601C24.8501 16.2846 25.4898 15.6249 25.9414 14.8405C26.393 14.0561 26.6422 13.1716 26.6666 12.2668L26.44 6.17344L20.3466 5.94678C19.4465 5.96532 18.5646 6.20486 17.7788 6.64428C16.9929 7.08372 16.3272 7.70958 15.84 8.46678L12.7733 13.5468L11.3066 13.0268C10.8586 12.8513 10.3699 12.807 9.89769 12.8991C9.42544 12.9912 8.98919 13.2158 8.63996 13.5468L5.29329 17.4134C5.2078 17.499 5.14953 17.608 5.1258 17.7266C5.10208 17.8453 5.11396 17.9682 5.15996 18.0801C5.20312 18.1952 5.27264 18.2985 5.36293 18.382C5.45324 18.4653 5.56181 18.5262 5.67996 18.5601L9.82663 19.1601L13.7733 23.1068Z" stroke="#1E2051" stroke-width="2" stroke-linecap="round" stroke-linejoin="round"/>
<path d="M20.3467 12.7134C20.0705 12.7134 19.8467 12.4895 19.8467 12.2134C19.8467 11.9372 20.0705 11.7134 20.3467 11.7134" stroke="currentColor" stroke-width="2"/>
<path d="M20.3467 12.7134C20.6228 12.7134 20.8467 12.4895 20.8467 12.2134C20.8467 11.9372 20.6228 11.7134 20.3467 11.7134" stroke="currentColor" stroke-width="2"/>
<path d="M30.1734 22.5864H27.84C27.51 22.6196 27.2042 22.7746 26.9823 23.0211C26.7604 23.2676 26.6384 23.588 26.64 23.9198C26.6292 24.1787 26.6942 24.435 26.8267 24.6576C26.9594 24.8802 27.1539 25.0594 27.3867 25.1731L29.7467 25.9864C29.982 26.0983 30.1794 26.2766 30.3144 26.4994C30.4495 26.722 30.5163 26.9795 30.5067 27.2398C30.5084 27.5715 30.3863 27.8919 30.1644 28.1384C29.9426 28.385 29.6367 28.5399 29.3067 28.5731H26.5067" stroke="currentColor" stroke-width="2" stroke-linecap="round" stroke-linejoin="round"/>
<path d="M28.5067 22.5868V21.2534" stroke="currentColor" stroke-width="2" stroke-linecap="round" stroke-linejoin="round"/>
<path d="M28.5067 29.9198V28.5864" stroke="currentColor" stroke-width="2" stroke-linecap="round" stroke-linejoin="round"/>
<path d="M6.15995 2.58691H3.82661C3.48957 2.6303 3.18181 2.80075 2.96621 3.06343C2.75061 3.32611 2.64345 3.66121 2.66662 4.00025C2.65585 4.25911 2.72073 4.51551 2.85333 4.7381C2.98593 4.96067 3.18051 5.13981 3.41329 5.25358L5.77329 6.06691C6.00605 6.18069 6.20063 6.35982 6.33323 6.58241C6.46583 6.80499 6.53071 7.06138 6.51995 7.32025C6.52194 7.64987 6.40178 7.96854 6.18263 8.21478C5.96349 8.46101 5.6609 8.61733 5.33329 8.65358H2.49329" stroke="currentColor" stroke-width="2" stroke-linecap="round" stroke-linejoin="round"/>
<path d="M4.49329 2.58675V1.25342" stroke="currentColor" stroke-width="2" stroke-linecap="round" stroke-linejoin="round"/>
<path d="M4.49329 9.92025V8.58691" stroke="currentColor" stroke-width="2" stroke-linecap="round" stroke-linejoin="round"/>
</g>
<defs>
<clipPath id="clip0_1600_21199">
<rect width="32" height="32" fill="white"/>
</clipPath>
</defs>
</svg>
