<svg width="32" height="32" viewBox="0 0 32 32" fill="none" xmlns="http://www.w3.org/2000/svg">
<g clip-path="url(#clip0_422_10700)">
<path d="M23.3119 30.2003C26.7451 28.8906 29.0794 26.6521 28.5256 25.2004C27.9718 23.7487 24.7397 23.6335 21.3065 24.9431C17.8733 26.2528 15.539 28.4913 16.0928 29.943C16.6466 31.3948 19.8787 31.5099 23.3119 30.2003Z" stroke="#1E2051" stroke-width="2" stroke-linecap="round" stroke-linejoin="round"/>
<path d="M16.1003 29.9412C16.6541 28.4895 14.3198 26.251 10.8866 24.9413C7.45338 23.6317 4.22128 23.7468 3.6675 25.1986C3.11372 26.6503 5.44797 28.8888 8.8812 30.1985C12.3144 31.5081 15.5465 31.3929 16.1003 29.9412Z" stroke="#1E2051" stroke-width="2" stroke-linecap="round" stroke-linejoin="round"/>
<path d="M16.0933 19.707V30.8537" stroke="#1E2051" stroke-width="2" stroke-linecap="round" stroke-linejoin="round"/>
<path d="M16.0933 14.7334C17.7501 14.7334 19.0933 13.3903 19.0933 11.7334C19.0933 10.0765 17.7501 8.7334 16.0933 8.7334C14.4364 8.7334 13.0933 10.0765 13.0933 11.7334C13.0933 13.3903 14.4364 14.7334 16.0933 14.7334Z" stroke="currentColor" stroke-width="2" stroke-linecap="round" stroke-linejoin="round"/>
<path d="M27.0933 11.7332C27.0935 11.2 26.987 10.6721 26.7802 10.1806C26.5734 9.68916 26.2703 9.24398 25.889 8.8713C25.5076 8.49862 25.0555 8.20596 24.5594 8.01052C24.0633 7.81508 23.5331 7.72081 23 7.73325C23.3065 7.27865 23.5163 6.76589 23.6163 6.22681C23.7164 5.68773 23.7045 5.13385 23.5815 4.59955C23.4584 4.06525 23.2269 3.56194 22.9012 3.12089C22.5755 2.67984 22.1626 2.31045 21.6881 2.03567C21.2137 1.76089 20.6878 1.58658 20.1431 1.52357C19.5985 1.46056 19.0467 1.5102 18.5221 1.66939C17.9974 1.82858 17.5111 2.09394 17.0933 2.44897C16.6755 2.80401 16.3351 3.24115 16.0933 3.73325C15.8433 3.25523 15.4991 2.83273 15.0815 2.49117C14.664 2.14961 14.1816 1.89605 13.6635 1.74574C13.1454 1.59543 12.6022 1.55148 12.0667 1.61653C11.5311 1.68158 11.0143 1.85429 10.5472 2.12427C10.0802 2.39425 9.67254 2.75591 9.34888 3.18751C9.02522 3.61911 8.7922 4.11172 8.66386 4.6357C8.53551 5.15969 8.51448 5.70422 8.60204 6.23654C8.68959 6.76887 8.88392 7.27798 9.17334 7.73325C8.11247 7.73325 7.09506 8.15467 6.34491 8.90482C5.59477 9.65497 5.17334 10.6724 5.17334 11.7332C5.17334 12.7941 5.59477 13.8115 6.34491 14.5617C7.09506 15.3118 8.11247 15.7332 9.17334 15.7332C8.88392 16.1885 8.68959 16.6976 8.60204 17.23C8.51448 17.7623 8.53551 18.3068 8.66386 18.8308C8.7922 19.3548 9.02522 19.8474 9.34888 20.279C9.67254 20.7106 10.0802 21.0722 10.5472 21.3422C11.0143 21.6122 11.5311 21.7849 12.0667 21.85C12.6022 21.915 13.1454 21.8711 13.6635 21.7208C14.1816 21.5704 14.664 21.3169 15.0815 20.9753C15.4991 20.6338 15.8433 20.2113 16.0933 19.7332C16.3351 20.2253 16.6755 20.6625 17.0933 21.0175C17.5111 21.3726 17.9974 21.6379 18.5221 21.7971C19.0467 21.9563 19.5985 22.0059 20.1431 21.9429C20.6878 21.8799 21.2137 21.7056 21.6881 21.4308C22.1626 21.156 22.5755 20.7867 22.9012 20.3456C23.2269 19.9046 23.4584 19.4012 23.5815 18.867C23.7045 18.3327 23.7164 17.7788 23.6163 17.2397C23.5163 16.7006 23.3065 16.1878 23 15.7332C23.5331 15.7457 24.0633 15.6514 24.5594 15.456C25.0555 15.2605 25.5076 14.9679 25.889 14.5952C26.2703 14.2225 26.5734 13.7773 26.7802 13.2859C26.987 12.7944 27.0935 12.2665 27.0933 11.7332Z" stroke="#1E2051" stroke-width="2" stroke-linecap="round" stroke-linejoin="round"/>
</g>
<defs>
<clipPath id="clip0_422_10700">
<rect width="32" height="32" fill="white"/>
</clipPath>
</defs>
</svg>
